<?xml version="1.0" standalone="no"?>
<!DOCTYPE svg PUBLIC "-//W3C//DTD SVG 20010904//EN"
 "http://www.w3.org/TR/2001/REC-SVG-20010904/DTD/svg10.dtd">
<svg version="1.0" xmlns="http://www.w3.org/2000/svg"
 width="700.000000pt" height="700.000000pt" viewBox="0 0 700.000000 700.000000"
 preserveAspectRatio="xMidYMid meet">
<metadata>
Created by potrace 1.14, written by Peter Selinger 2001-2017
</metadata>
<g transform="translate(0.000000,700.000000) scale(0.100000,-0.100000)"
fill="#000000" stroke="none">
<path d="M1950 6782 c-56 -28 -70 -57 -75 -152 -3 -47 -7 -461 -10 -920 -6
-1126 -13 -1732 -20 -1738 -5 -5 -281 -6 -1281 -2 -471 2 -473 2 -510 -55 -22
-34 -20 -105 5 -152 19 -38 87 -113 102 -113 5 0 26 -26 48 -59 30 -43 58 -70
113 -104 40 -25 88 -64 106 -86 37 -45 205 -215 242 -246 33 -27 106 -77 156
-108 32 -20 54 -48 97 -124 66 -117 79 -148 112 -277 14 -54 36 -122 50 -151
29 -65 91 -130 148 -155 23 -11 61 -39 84 -62 60 -63 484 -278 545 -278 52 0
91 24 127 77 14 22 38 53 54 69 34 37 64 100 78 167 23 105 52 137 151 167 52
16 81 19 112 14 53 -10 67 -11 206 -18 63 -4 124 -9 135 -13 11 -3 72 -58 135
-122 63 -64 140 -138 171 -166 49 -45 60 -62 98 -159 24 -61 66 -148 93 -195
27 -48 65 -118 83 -158 25 -52 56 -93 114 -152 51 -52 89 -101 107 -138 18
-40 53 -83 110 -139 75 -73 83 -85 75 -105 -13 -36 -6 -71 23 -113 14 -20 22
-44 19 -52 -10 -27 7 -82 42 -132 39 -58 105 -184 105 -202 0 -24 34 -86 62
-111 16 -15 55 -34 86 -43 39 -11 71 -28 99 -55 37 -34 49 -39 102 -43 48 -3
70 -11 105 -36 71 -51 111 -64 214 -67 90 -2 99 -5 188 -50 98 -50 90 -49 199
-30 180 32 207 80 161 280 -41 178 -66 331 -61 377 3 24 15 91 28 150 25 114
39 140 192 378 l61 95 135 79 c128 76 625 375 675 406 70 44 181 124 279 201
151 118 200 151 273 184 95 43 113 82 87 185 -5 20 2 39 29 80 47 71 60 120
51 195 -3 33 -6 69 -6 80 -1 52 22 149 49 211 74 169 78 246 20 331 -22 32
-39 73 -47 111 -6 33 -23 77 -37 98 -15 22 -29 61 -33 89 -7 49 -28 93 -83
171 l-27 39 -5 420 c-3 231 -9 440 -14 464 -19 85 -62 119 -161 125 -78 5
-168 42 -305 126 -61 37 -126 75 -143 84 -37 18 -84 14 -122 -11 -24 -15 -51
-17 -159 -9 -30 2 -67 0 -83 -4 -16 -5 -53 -12 -82 -15 -48 -6 -97 -26 -173
-71 l-31 -18 -39 31 c-22 16 -48 35 -59 41 -33 17 -224 19 -261 2 -28 -12 -36
-11 -67 3 -25 12 -48 15 -75 11 -32 -5 -43 -2 -69 20 -59 50 -115 58 -176 26
-20 -11 -43 -20 -49 -20 -7 0 -31 24 -54 53 -23 30 -58 61 -80 72 -42 20 -120
23 -151 7 -18 -10 -67 -8 -123 4 -14 3 -26 5 -28 5 -1 -1 -25 11 -54 25 -28
14 -70 27 -92 29 -23 2 -44 4 -47 4 -4 1 -14 21 -23 45 -30 77 -86 105 -161
79 -45 -16 -120 -9 -132 11 -5 7 -22 21 -40 30 -18 9 -37 25 -43 35 -6 13 -10
215 -10 580 0 535 -1 561 -20 606 -34 78 12 74 -836 74 -687 0 -754 -1 -784
-17z"/>
</g>
</svg>
